<svg width="1036" height="712" viewBox="0 0 1036 712" fill="none" xmlns="http://www.w3.org/2000/svg">
<g id="/YetAnotherIcons/Black/">
<rect width="1036" height="712" fill="white"/>
<g id="Group">
<g id="Icon/Play">
<g id="Group_2">
<path id="Figure" d="M160.946 136.535C163.685 138.051 163.685 141.949 160.946 143.465L122.979 164.488C120.301 165.97 117 164.057 117 161.023L117 118.977C117 115.943 120.301 114.03 122.979 115.512L160.946 136.535Z" fill="black"/>
</g>
</g>
</g>
<g id="Group_3">
<g id="Icon/Home">
<g id="Group_4">
<path id="Figure_2" d="M267.509 144.496C268.291 145.275 269.559 145.275 270.341 144.496L274.413 140.443C275.196 139.664 275.196 138.402 274.413 137.623L249.262 112.584C248.51 111.836 247.311 111.807 246.524 112.495C246.472 112.538 246.421 112.584 246.372 112.632L221.587 137.306C220.804 138.085 220.804 139.348 221.587 140.126L225.659 144.18C226.441 144.959 227.709 144.959 228.491 144.18L230.185 142.494V165.006C230.185 166.107 231.082 167 232.188 167H263.234C264.34 167 265.237 166.107 265.237 165.006V142.235L267.509 144.496Z" fill="black"/>
</g>
</g>
</g>
<g id="Group_5">
<g id="Icon/Pause">
<g id="Group_6">
<rect id="Rectangle" x="120" y="328" width="16" height="56" rx="2" fill="black"/>
<rect id="Rectangle_2" x="144" y="328" width="16" height="56" rx="2" fill="black"/>
</g>
</g>
</g>
<g id="Group_7">
<g id="Icon/Player">
<g id="Group_8">
<circle id="Ellipse" cx="248" cy="448" r="12" fill="black"/>
<path id="Figure_3" d="M274 492C275.105 492 276.007 491.103 275.929 490.002C275.45 483.306 272.577 476.979 267.799 472.201C262.548 466.95 255.426 464 248 464C240.574 464 233.452 466.95 228.201 472.201C223.423 476.979 220.55 483.306 220.071 490.002C219.993 491.103 220.895 492 222 492L274 492Z" fill="black"/>
</g>
</g>
</g>
<g id="Group_9">
<g id="Icon/Star">
<g id="Group_10">
<path id="Star" d="M352.174 115.798C353.378 112.067 358.622 112.067 359.826 115.798L363.678 127.728C364.217 129.396 365.762 130.526 367.505 130.526H379.969C383.866 130.526 385.487 135.545 382.334 137.851L372.25 145.224C370.84 146.255 370.25 148.083 370.788 149.751L374.64 161.681C375.844 165.412 371.602 168.514 368.449 166.208L358.365 158.835C356.955 157.804 355.045 157.804 353.635 158.835L343.551 166.208C340.398 168.514 336.156 165.412 337.36 161.681L341.212 149.751C341.75 148.083 341.16 146.255 339.75 145.224L329.666 137.851C326.513 135.545 328.134 130.526 332.031 130.526H344.495C346.238 130.526 347.783 129.396 348.322 127.728L352.174 115.798Z" fill="black"/>
</g>
</g>
</g>
<g id="Group_11">
<g id="Icon/Music-Off">
<g id="Group_12">
<g id="Figure_4">
<path d="M238.065 220H273.065V253H273.021C273.05 253.329 273.065 253.663 273.065 254C273.065 257.635 271.302 260.859 268.584 262.861L253.204 247.482C255.207 244.763 258.43 243 262.065 243C263.105 243 264.112 243.144 265.065 243.414V234H246.065V240.343L238.065 232.343V220Z" fill="black"/>
<path d="M238.065 243.657V254.414C237.112 254.144 236.105 254 235.065 254C228.99 254 224.065 258.925 224.065 265C224.065 271.075 228.99 276 235.065 276C241.141 276 246.065 271.075 246.065 265C246.065 264.663 246.05 264.329 246.021 264H246.065V251.657L238.065 243.657Z" fill="black"/>
<path d="M251.508 257.099C252.558 260.682 255.383 263.507 258.966 264.557L251.508 257.099Z" fill="black"/>
</g>
<rect id="Rectangle_3" x="224.535" y="221.551" width="70" height="4.00423" rx="2" transform="rotate(45 224.535 221.551)" fill="black"/>
</g>
</g>
</g>
<g id="Group_13">
<g id="Icon/Levels">
<g id="Group_14">
<rect id="Rectangle_4" x="436" y="112" width="22" height="14" rx="2" fill="black"/>
<rect id="Rectangle_5" x="470" y="112" width="22" height="14" rx="2" fill="black"/>
<rect id="Rectangle_6" x="436" y="133" width="22" height="14" rx="2" fill="black"/>
<rect id="Rectangle_7" x="470" y="133" width="22" height="14" rx="2" fill="black"/>
<rect id="Rectangle_8" x="436" y="154" width="22" height="14" rx="2" fill="black"/>
<rect id="Rectangle_9" x="470" y="154" width="22" height="14" rx="2" fill="black"/>
</g>
</g>
</g>
<g id="Group_15">
<g id="Icon/Gear">
<g id="Group_16">
<path id="Figure_5" fill-rule="evenodd" clip-rule="evenodd" d="M568 112C566.895 112 566 112.895 566 114V120.916C564.754 121.307 563.56 121.817 562.433 122.433L557.816 117.816C557.035 117.035 555.769 117.035 554.988 117.816L549.331 123.473C548.55 124.254 548.55 125.52 549.331 126.302L554.099 131.07C553.631 132.007 553.234 132.986 552.916 134H546C544.895 134 544 134.895 544 136V144C544 145.105 544.895 146 546 146H552.916C553.234 147.014 553.631 147.993 554.099 148.93L548.929 154.101C548.148 154.882 548.148 156.148 548.929 156.929L554.586 162.586C555.367 163.367 556.633 163.367 557.414 162.586L562.433 157.567C563.56 158.183 564.754 158.693 566 159.084V166C566 167.105 566.895 168 568 168H576C577.105 168 578 167.105 578 166V159.084C579.014 158.766 579.993 158.369 580.93 157.901L586.101 163.071C586.882 163.852 588.148 163.852 588.929 163.071L594.586 157.414C595.367 156.633 595.367 155.367 594.586 154.586L589.567 149.567C590.183 148.44 590.693 147.246 591.084 146H598C599.105 146 600 145.105 600 144V136C600 134.895 599.105 134 598 134H591.084C590.693 132.754 590.183 131.56 589.567 130.433L594.184 125.816C594.965 125.035 594.965 123.769 594.184 122.988L588.527 117.331C587.746 116.55 586.48 116.55 585.698 117.331L580.93 122.099C579.993 121.631 579.014 121.234 578 120.916V114C578 112.895 577.105 112 576 112H568ZM572 150C577.523 150 582 145.523 582 140C582 134.477 577.523 130 572 130C566.477 130 562 134.477 562 140C562 145.523 566.477 150 572 150Z" fill="black"/>
</g>
</g>
</g>
<g id="Group_17">
<g id="Icon/Music-On">
<g id="Group_18">
<path id="Figure_6" d="M128 220C126.895 220 126 220.895 126 222V254.414C125.046 254.144 124.04 254 123 254C116.925 254 112 258.925 112 265C112 271.075 116.925 276 123 276C129.075 276 134 271.075 134 265C134 264.663 133.985 264.329 133.955 264H134V234H153V243.414C152.046 243.144 151.04 243 150 243C143.925 243 139 247.925 139 254C139 260.075 143.925 265 150 265C156.075 265 161 260.075 161 254C161 253.663 160.985 253.329 160.955 253H161V222C161 220.895 160.105 220 159 220H128Z" fill="black"/>
</g>
</g>
</g>
<g id="Group_19">
<g id="Icon/Info">
<g id="Group_20">
<g id="Figure_7">
<path d="M690 164C691.105 164 692 163.105 692 162V154C692 152.895 691.105 152 690 152H688V134C688 132.895 687.105 132 686 132H669C667.895 132 667 132.895 667 134L667 142C667 143.105 667.895 144 669 144H672L672 152H669C667.895 152 667 152.895 667 154L667 162C667 163.105 667.895 164 669 164H690Z" fill="black"/>
<path d="M686 128C687.105 128 688 127.105 688 126V118C688 116.895 687.105 116 686 116L674 116C672.895 116 672 116.895 672 118L672 126C672 127.105 672.895 128 674 128L686 128Z" fill="black"/>
</g>
</g>
</g>
</g>
<g id="Group_21">
<g id="Icon/MediumArrow-Right">
<g id="Frame">
<path id="Figure_8" d="M665.628 333.373C664.847 334.154 664.847 335.421 665.628 336.202L685.426 356L665.628 375.799C664.847 376.58 664.847 377.846 665.628 378.627L668.456 381.456C669.237 382.237 670.504 382.237 671.285 381.456L692.477 360.263C692.484 360.257 692.491 360.25 692.498 360.243L695.326 357.415C695.689 357.052 695.883 356.584 695.909 356.108C695.913 356.04 695.913 355.972 695.91 355.905C695.887 355.425 695.692 354.952 695.326 354.586L692.498 351.758C692.491 351.751 692.484 351.744 692.477 351.737L671.285 330.545C670.504 329.764 669.237 329.764 668.456 330.545L665.628 333.373Z" fill="black"/>
</g>
</g>
</g>
<g id="Group_22">
<g id="Icon/MediumArrow-Left">
<g id="Frame_2">
<path id="Figure_9" d="M586.373 378.626C587.154 377.845 587.154 376.579 586.373 375.798L566.574 355.999L586.373 336.201C587.154 335.42 587.154 334.153 586.373 333.372L583.545 330.544C582.763 329.763 581.497 329.763 580.716 330.544L559.523 351.737C559.517 351.743 559.51 351.75 559.503 351.757L556.675 354.585C556.292 354.967 556.097 355.465 556.089 355.966C556.081 356.489 556.276 357.015 556.675 357.414L580.716 381.455C581.497 382.236 582.763 382.236 583.545 381.455L586.373 378.626Z" fill="black"/>
</g>
</g>
</g>
<g id="Group_23">
<g id="Icon/Cart">
<g id="Group_24">
<path id="Rectangle_10" d="M762.363 117.289C762.157 116.276 762.758 115.273 763.748 114.976L765.273 114.518C766.254 114.224 767.299 114.719 767.694 115.665L771.487 124.769C771.798 125.515 772.526 126 773.333 126H810.639C811.875 126 812.815 127.11 812.612 128.329L809.279 148.329C809.118 149.293 808.283 150 807.306 150H770.635C769.684 150 768.864 149.33 768.675 148.398L762.363 117.289Z" fill="black"/>
<circle id="Ellipse_2" cx="777" cy="160" r="6" fill="black"/>
<circle id="Ellipse_3" cx="801" cy="160" r="6" fill="black"/>
</g>
</g>
</g>
<g id="Group_25">
<g id="Icon/ShareLink">
<g id="Group_26">
<path id="Figure_10" d="M163 447C163 451.971 158.971 456 154 456C151.034 456 148.403 454.565 146.764 452.352L134.449 458.893C134.805 459.861 135 460.908 135 462C135 463.308 134.721 464.551 134.219 465.673L147.627 474.645C149.256 473.011 151.51 472 154 472C158.971 472 163 476.029 163 481C163 485.971 158.971 490 154 490C149.029 490 145 485.971 145 481C145 479.961 145.176 478.963 145.5 478.035L131.81 468.874C130.242 470.2 128.214 471 126 471C121.029 471 117 466.971 117 462C117 457.029 121.029 453 126 453C128.43 453 130.636 453.963 132.255 455.529L145.156 448.677C145.054 448.134 145 447.573 145 447C145 442.029 149.029 438 154 438C158.971 438 163 442.029 163 447Z" fill="black"/>
</g>
</g>
</g>
<g id="Group_27">
<g id="Icon/Podium">
<g id="Group_28">
<path id="Figure_11" d="M889 132C887.895 132 887 132.895 887 134V146H871C869.895 146 869 146.895 869 148V166C869 167.105 869.895 168 871 168H921C922.105 168 923 167.105 923 166V152C923 150.895 922.105 150 921 150H905V134C905 132.895 904.105 132 903 132H889Z" fill="black"/>
</g>
</g>
</g>
<g id="Group_29">
<g id="Icon/Exit">
<g id="Group_30">
<path id="Figure_12" fill-rule="evenodd" clip-rule="evenodd" d="M556 552V591H588V552H556ZM554 548C552.895 548 552 548.895 552 550V593C552 594.105 552.895 595 554 595H590C591.105 595 592 594.105 592 593V550C592 548.895 591.105 548 590 548H554Z" fill="black"/>
<path id="Figure_13" fill-rule="evenodd" clip-rule="evenodd" d="M575.696 598.976C576.907 599.162 578 598.23 578 597.012L578 545.988C578 544.77 576.907 543.838 575.696 544.024L553.696 547.387C552.72 547.537 552 548.371 552 549.352L552 593.648C552 594.629 552.72 595.463 553.696 595.613L575.696 598.976ZM572 573.488C573.105 573.488 574 572.598 574 571.5C574 570.402 573.105 569.512 572 569.512C570.895 569.512 570 570.402 570 571.5C570 572.598 570.895 573.488 572 573.488Z" fill="black"/>
</g>
</g>
</g>
<g id="Group_31">
<g id="Icon/SolidArrow-Left">
<g id="Group_32">
<path id="Figure_14" d="M474 379.172C474 380.953 471.846 381.846 470.586 380.586L447.414 357.414C446.633 356.633 446.633 355.367 447.414 354.586L470.586 331.414C471.846 330.154 474 331.047 474 332.828L474 379.172Z" fill="black"/>
</g>
</g>
</g>
<g id="Group_33">
<g id="Icon/SolidArrow-Right">
<g id="Group_34">
<path id="Figure_15" d="M346 332.828C346 331.047 348.154 330.154 349.414 331.414L372.586 354.586C373.367 355.367 373.367 356.633 372.586 357.414L349.414 380.586C348.154 381.846 346 380.953 346 379.172V332.828Z" fill="black"/>
</g>
</g>
</g>
<g id="Group_35">
<g id="Icon/Question">
<g id="Group_36">
<rect id="Rectangle_11" x="781" y="262" width="13" height="14" rx="2" fill="black"/>
<path id="Figure_16" d="M789 257.993C792.484 257.896 795.874 256.79 798.778 254.798C801.82 252.71 804.192 249.743 805.592 246.271C806.992 242.799 807.358 238.979 806.645 235.293C805.931 231.608 804.169 228.222 801.581 225.565C798.994 222.908 795.698 221.098 792.109 220.365C788.521 219.632 784.801 220.008 781.42 221.446C778.04 222.884 775.151 225.32 773.118 228.444C771.447 231.012 770.416 233.951 770.102 237.003C769.989 238.102 770.895 239 772 239L778.743 239C779.847 239 780.718 238.091 780.986 237.02C781.203 236.153 781.561 235.326 782.05 234.574C782.903 233.264 784.114 232.243 785.531 231.64C786.949 231.037 788.509 230.879 790.013 231.186C791.518 231.494 792.9 232.252 793.985 233.367C795.07 234.481 795.809 235.9 796.108 237.446C796.407 238.991 796.254 240.593 795.667 242.049C795.08 243.505 794.085 244.749 792.81 245.624C791.534 246.5 790.034 247 788.5 247H783C781.895 247 781 247.895 781 249V256C781 257.105 781.895 258 783 258H789V257.993Z" fill="black"/>
</g>
</g>
</g>
<g id="Group_37">
<g id="Icon/Locker-Locked">
<g id="Group_38">
<path id="Figure_17" fill-rule="evenodd" clip-rule="evenodd" d="M662 452C660.895 452 660 452.895 660 454V490C660 491.105 660.895 492 662 492H698C699.105 492 700 491.105 700 490V454C700 452.895 699.105 452 698 452H662ZM677 467C675.895 467 675 467.895 675 469V475C675 476.105 675.895 477 677 477H683C684.105 477 685 476.105 685 475V469C685 467.895 684.105 467 683 467H677Z" fill="black"/>
<path id="Figure_18" fill-rule="evenodd" clip-rule="evenodd" d="M666 452H672V442H688V452H694V438C694 436.895 693.105 436 692 436H668C666.895 436 666 436.895 666 438V452Z" fill="black"/>
</g>
</g>
</g>
<g id="Group_39">
<g id="Icon/Locker-Unlocked">
<g id="Group_40">
<path id="Figure_19" fill-rule="evenodd" clip-rule="evenodd" d="M554 452C552.895 452 552 452.895 552 454V490C552 491.105 552.895 492 554 492H590C591.105 492 592 491.105 592 490V454C592 452.895 591.105 452 590 452H554ZM569 467C567.895 467 567 467.895 567 469V475C567 476.105 567.895 477 569 477H575C576.105 477 577 476.105 577 475V469C577 467.895 576.105 467 575 467H569Z" fill="black"/>
<path id="Figure_20" d="M558 438C558 436.895 558.895 436 560 436H584C585.105 436 586 436.895 586 438V445C586 446.105 585.105 447 584 447H582C580.895 447 580 446.105 580 445V442H564V452H558V438Z" fill="black"/>
</g>
</g>
</g>
<g id="Group_41">
<g id="Icon/Repeat-Right">
<g id="Group_42">
<path id="Figure_21" fill-rule="evenodd" clip-rule="evenodd" d="M247 342C243.638 342 240.351 342.997 237.555 344.865C234.76 346.733 232.581 349.388 231.294 352.494C230.007 355.601 229.671 359.019 230.327 362.317C230.983 365.614 232.602 368.643 234.979 371.021C237.357 373.398 240.386 375.017 243.683 375.673C246.981 376.329 250.399 375.993 253.506 374.706C256.612 373.419 259.267 371.24 261.135 368.445C262.631 366.205 263.569 363.651 263.882 360.995C264.012 359.899 264.895 359 266 359H270C271.105 359 272.008 359.897 271.92 360.998C271.58 365.238 270.162 369.334 267.787 372.889C265.04 377 261.135 380.205 256.567 382.097C251.999 383.989 246.972 384.484 242.123 383.52C237.273 382.555 232.819 380.174 229.322 376.678C225.826 373.181 223.445 368.727 222.48 363.877C221.516 359.028 222.011 354.001 223.903 349.433C225.795 344.865 229 340.96 233.111 338.213C237.222 335.466 242.055 334 247 334V342Z" fill="black"/>
<path id="Polygon" d="M258.722 336.373C259.838 337.17 259.838 338.83 258.722 339.627L250.162 345.741C248.839 346.687 247 345.74 247 344.114L247 331.886C247 330.26 248.839 329.313 250.162 330.259L258.722 336.373Z" fill="black"/>
</g>
</g>
</g>
<g id="Group_43">
<g id="Icon/Sound-Three">
<g id="Group_44">
<path id="Figure_22" d="M677.586 272.414C678.846 273.665 681 272.779 681 271.01V224.99C681 223.221 678.846 222.335 677.586 223.586L665 236.084H655C653.895 236.084 653 236.973 653 238.07V257.93C653 259.027 653.895 259.916 655 259.916H665L677.586 272.414Z" fill="black"/>
<path id="Figure_23" fill-rule="evenodd" clip-rule="evenodd" d="M686.046 245.343C685.875 244.957 685.673 244.584 685.443 244.228C684.836 243.289 684.809 242.037 685.638 241.261L686.372 240.573C687.201 239.797 688.56 239.789 689.256 240.674C689.929 241.53 690.491 242.462 690.927 243.449C691.636 245.05 692 246.767 692 248.5C692 250.233 691.636 251.95 690.927 253.551C690.491 254.538 689.929 255.47 689.256 256.326C688.56 257.211 687.201 257.203 686.372 256.427L685.638 255.739C684.809 254.963 684.836 253.711 685.443 252.772C685.673 252.416 685.875 252.043 686.046 251.657C686.488 250.656 686.716 249.583 686.716 248.5C686.716 247.417 686.488 246.344 686.046 245.343Z" fill="black"/>
<path id="Figure_24" fill-rule="evenodd" clip-rule="evenodd" d="M694.921 243.58C694.519 242.655 694.007 241.779 693.395 240.971C692.705 240.061 692.691 238.75 693.517 237.962L694.193 237.317C694.965 236.58 696.191 236.573 696.882 237.388C697.996 238.703 698.909 240.167 699.59 241.735C700.521 243.88 701 246.179 701 248.5C701 250.821 700.521 253.12 699.59 255.265C698.909 256.833 697.996 258.297 696.882 259.612C696.191 260.427 694.965 260.42 694.193 259.683L693.517 259.038C692.691 258.25 692.705 256.939 693.395 256.029C694.007 255.221 694.519 254.345 694.921 253.42C695.598 251.86 695.947 250.188 695.947 248.5C695.947 246.812 695.598 245.14 694.921 243.58Z" fill="black"/>
<path id="Figure_25" fill-rule="evenodd" clip-rule="evenodd" d="M702.832 241.484C702.186 239.864 701.319 238.352 700.262 236.993C699.602 236.143 699.592 234.922 700.339 234.147L700.97 233.493C701.756 232.677 703.07 232.673 703.78 233.556C705.233 235.362 706.416 237.39 707.287 239.57C708.418 242.401 709 245.436 709 248.5C709 251.564 708.418 254.599 707.287 257.43C706.416 259.61 705.233 261.638 703.78 263.444C703.07 264.327 701.756 264.323 700.97 263.507L700.339 262.853C699.592 262.078 699.602 260.857 700.262 260.007C701.319 258.648 702.186 257.136 702.832 255.516C703.721 253.292 704.178 250.908 704.178 248.5C704.178 246.092 703.721 243.708 702.832 241.484Z" fill="black"/>
</g>
</g>
</g>
<g id="Group_45">
<g id="Icon/Sound-Two">
<g id="Group_46">
<path id="Figure_26" d="M568.586 272.414C569.846 273.665 572 272.779 572 271.01V224.99C572 223.221 569.846 222.335 568.586 223.586L556 236.084H546C544.895 236.084 544 236.973 544 238.07V257.93C544 259.027 544.895 259.916 546 259.916H556L568.586 272.414Z" fill="black"/>
<path id="Figure_27" fill-rule="evenodd" clip-rule="evenodd" d="M577.046 245.343C576.875 244.957 576.673 244.584 576.443 244.228C575.836 243.289 575.809 242.037 576.638 241.261L577.372 240.573C578.201 239.797 579.56 239.789 580.256 240.674C580.929 241.53 581.491 242.462 581.927 243.449C582.636 245.05 583 246.767 583 248.5C583 250.233 582.636 251.95 581.927 253.551C581.491 254.538 580.929 255.47 580.256 256.326C579.56 257.211 578.201 257.203 577.372 256.427L576.638 255.739C575.809 254.963 575.836 253.711 576.443 252.772C576.673 252.416 576.875 252.043 577.046 251.657C577.488 250.656 577.716 249.583 577.716 248.5C577.716 247.417 577.488 246.344 577.046 245.343Z" fill="black"/>
<path id="Figure_28" fill-rule="evenodd" clip-rule="evenodd" d="M585.921 243.58C585.519 242.655 585.007 241.779 584.395 240.971C583.705 240.061 583.691 238.75 584.517 237.962L585.193 237.317C585.965 236.58 587.191 236.573 587.882 237.388C588.996 238.703 589.909 240.167 590.59 241.735C591.521 243.88 592 246.179 592 248.5C592 250.821 591.521 253.12 590.59 255.265C589.909 256.833 588.996 258.297 587.882 259.612C587.191 260.427 585.965 260.42 585.193 259.683L584.517 259.038C583.691 258.25 583.705 256.939 584.395 256.029C585.007 255.221 585.519 254.345 585.921 253.42C586.598 251.86 586.947 250.188 586.947 248.5C586.947 246.812 586.598 245.14 585.921 243.58Z" fill="black"/>
</g>
</g>
</g>
<g id="Group_47">
<g id="Icon/Sound-None">
<g id="Group_48">
<path id="Figure_29" d="M352.586 272.586C353.846 273.846 356 272.953 356 271.171V224.828C356 223.046 353.846 222.154 352.586 223.414L340 236H330C328.895 236 328 236.895 328 238V258C328 259.104 328.895 260 330 260H340L352.586 272.586Z" fill="black"/>
<path id="Figure_30" d="M368.878 241.636C368.097 240.855 366.831 240.855 366.05 241.636L364.636 243.05C363.855 243.831 363.855 245.097 364.636 245.878L366.757 248L364.636 250.121C363.855 250.902 363.855 252.169 364.636 252.95L366.05 254.364C366.831 255.145 368.097 255.145 368.878 254.364L371 252.243L373.121 254.364C373.902 255.145 375.168 255.145 375.949 254.364L377.364 252.949C378.145 252.168 378.145 250.902 377.364 250.121L375.243 248L377.364 245.879C378.145 245.098 378.145 243.831 377.364 243.05L375.95 241.636C375.169 240.855 373.902 240.855 373.121 241.636L371 243.757L368.878 241.636Z" fill="black"/>
</g>
</g>
</g>
<g id="Group_49">
<g id="Icon/Sound-One">
<g id="Group_50">
<path id="Figure_31" d="M460.586 272.414C461.846 273.665 464 272.779 464 271.01V224.99C464 223.221 461.846 222.335 460.586 223.586L448 236.084H438C436.895 236.084 436 236.973 436 238.07V257.93C436 259.027 436.895 259.916 438 259.916H448L460.586 272.414Z" fill="black"/>
<path id="Figure_32" fill-rule="evenodd" clip-rule="evenodd" d="M469.046 245.343C468.875 244.957 468.673 244.584 468.443 244.228C467.836 243.289 467.809 242.037 468.638 241.261L469.372 240.573C470.201 239.797 471.56 239.789 472.256 240.674C472.929 241.53 473.491 242.462 473.927 243.449C474.636 245.05 475 246.767 475 248.5C475 250.233 474.636 251.95 473.927 253.551C473.491 254.538 472.929 255.47 472.256 256.326C471.56 257.211 470.201 257.203 469.372 256.427L468.638 255.739C467.809 254.963 467.836 253.711 468.443 252.772C468.673 252.416 468.875 252.043 469.046 251.657C469.488 250.656 469.716 249.583 469.716 248.5C469.716 247.417 469.488 246.344 469.046 245.343Z" fill="black"/>
</g>
</g>
</g>
<g id="Group_51">
<g id="Group_52">
<g id="Icon/Multiplayer">
<g id="Group_53">
<circle id="Ellipse_4" cx="447.176" cy="471.411" r="5.64706" fill="black"/>
<path id="Ellipse_5" d="M458.353 492.117C459.458 492.117 460.369 491.216 460.201 490.124C459.78 487.367 458.49 484.796 456.494 482.8C454.023 480.329 450.671 478.94 447.176 478.94C443.682 478.94 440.33 480.329 437.859 482.8C435.863 484.796 434.573 487.367 434.151 490.124C433.984 491.216 434.895 492.117 436 492.117L458.353 492.117Z" fill="black"/>
<circle id="Ellipse_6" cx="476.824" cy="471.411" r="5.64706" fill="black"/>
<path id="Ellipse_7" d="M487.999 492.117C489.104 492.117 490.015 491.216 489.848 490.124C489.426 487.367 488.137 484.796 486.14 482.8C483.669 480.329 480.318 478.94 476.823 478.94C473.328 478.94 469.977 480.329 467.506 482.8C465.509 484.796 464.22 487.367 463.798 490.124C463.631 491.216 464.542 492.117 465.646 492.117L487.999 492.117Z" fill="black"/>
<circle id="Ellipse_8" cx="462.001" cy="465.647" r="5.64706" fill="black"/>
<path id="Figure_33" d="M472.484 478.371C472.127 477.902 471.738 477.456 471.317 477.035C468.846 474.564 465.495 473.176 462 473.176C458.505 473.176 455.154 474.564 452.683 477.035C452.262 477.456 451.873 477.902 451.517 478.37C453.759 478.957 455.827 480.132 457.494 481.799C458.801 483.106 459.806 484.661 460.462 486.352H463.538C464.194 484.661 465.199 483.107 466.506 481.8C468.173 480.132 470.241 478.958 472.484 478.371Z" fill="black"/>
</g>
</g>
</g>
</g>
<g id="Group_54">
<g id="Icon/TwoPlayer">
<g id="Group_55">
<g id="Group_56">
<circle id="Ellipse_9" cx="342.839" cy="466.788" r="6.78787" fill="black"/>
<circle id="Ellipse_10" cx="367.162" cy="466.788" r="6.78787" fill="black"/>
<path id="Ellipse_11" d="M381 491.677C382.105 491.677 383.013 490.778 382.874 489.682C382.434 486.218 380.857 482.974 378.361 480.478C375.391 477.508 371.362 475.839 367.162 475.839C362.961 475.839 358.932 477.508 355.962 480.478C353.466 482.974 351.889 486.218 351.449 489.682C351.31 490.778 352.219 491.677 353.323 491.677L381 491.677Z" fill="black"/>
<path id="Figure_34" d="M349.626 491.677C349.626 487.531 351.252 483.552 354.151 480.593C354.113 480.554 354.075 480.516 354.037 480.478C351.067 477.508 347.038 475.839 342.838 475.839C338.637 475.839 334.609 477.508 331.638 480.478C329.142 482.974 327.565 486.218 327.125 489.682C326.986 490.778 327.895 491.677 328.999 491.677H349.626Z" fill="black"/>
</g>
</g>
</g>
</g>
<g id="Group_57">
<g id="Icon/TalkBubble">
<path id="Figure_35" fill-rule="evenodd" clip-rule="evenodd" d="M652 546C652 544.895 652.895 544 654 544H706C707.105 544 708 544.895 708 546V582C708 583.105 707.105 584 706 584H677L664.414 596.586C663.154 597.846 661 596.953 661 595.172L661 584H654C652.895 584 652 583.105 652 582V546ZM672 564C672 566.209 670.209 568 668 568C665.791 568 664 566.209 664 564C664 561.791 665.791 560 668 560C670.209 560 672 561.791 672 564ZM680 568C682.209 568 684 566.209 684 564C684 561.791 682.209 560 680 560C677.791 560 676 561.791 676 564C676 566.209 677.791 568 680 568ZM696 564C696 566.209 694.209 568 692 568C689.791 568 688 566.209 688 564C688 561.791 689.791 560 692 560C694.209 560 696 561.791 696 564Z" fill="black"/>
</g>
</g>
<g id="Group_58">
<g id="Icon/Tick">
<g id="Group_59">
<path id="Figure_36" d="M267.57 555.407C266.785 554.63 265.513 554.63 264.728 555.407L245.14 574.801L231.272 561.07C230.487 560.293 229.214 560.293 228.429 561.07L221.421 568.009C220.636 568.786 220.636 570.046 221.421 570.823L243.522 592.705C243.799 592.979 244.137 593.157 244.493 593.237C245.218 593.526 246.077 593.379 246.664 592.798L274.579 565.16C275.364 564.383 275.364 563.123 274.579 562.346L267.57 555.407Z" fill="black"/>
</g>
</g>
</g>
<g id="Group_60">
<g id="Icon/Cross">
<path id="Figure_37" d="M163.334 558.564C164.115 557.783 164.115 556.517 163.334 555.736L156.263 548.665C155.482 547.884 154.215 547.884 153.434 548.665L140 562.1L126.565 548.665C125.784 547.884 124.517 547.884 123.736 548.665L116.665 555.736C115.884 556.517 115.884 557.783 116.665 558.564L130.1 571.999L116.665 585.434C115.884 586.215 115.884 587.482 116.665 588.263L123.736 595.334C124.517 596.115 125.783 596.115 126.564 595.334L140 581.899L153.435 595.334C154.216 596.115 155.482 596.115 156.263 595.334L163.334 588.263C164.115 587.482 164.115 586.216 163.334 585.435L149.899 571.999L163.334 558.564Z" fill="black"/>
</g>
</g>
<g id="Group_61">
<g id="Icon/Thumb-Down">
<g id="Group_62">
<rect id="Rectangle_12" width="16" height="33" rx="2" transform="matrix(1 0 0 -1 436 578)" fill="black"/>
<path id="Figure_38" d="M474.729 593.889C474.568 601.282 464.58 600.1 464.729 593.889L464.731 593.785C464.88 587.547 465.159 575.889 452.729 575.889H454.341C453.56 575.617 453 574.874 453 574V549C453 547.895 453.895 547 455 547H490C491.104 547 492 547.895 492 549V574C492 575.105 491.104 576 490 576H474.73C474.747 577.147 474.879 586.938 474.729 593.889Z" fill="black"/>
</g>
</g>
</g>
<g id="Group_63">
<g id="Icon/Thumb-Up">
<g id="Group_64">
<rect id="Rectangle_13" x="328" y="566" width="16" height="33" rx="2" fill="black"/>
<path id="Figure_39" d="M366.729 550.111C366.568 542.718 356.58 543.9 356.729 550.111L356.731 550.215C356.88 556.453 357.159 568.111 344.729 568.111H346.341C345.56 568.383 345 569.126 345 570V595C345 596.105 345.895 597 347 597H382C383.104 597 384 596.105 384 595V570C384 568.895 383.104 568 382 568H366.73C366.747 566.853 366.879 557.062 366.729 550.111Z" fill="black"/>
</g>
</g>
</g>
<g id="Group_65">
<g id="Icon/Exclamation">
<g id="Group_66">
<rect id="Rectangle_14" x="888" y="262" width="16" height="14" rx="2" fill="black"/>
<rect id="Rectangle_15" x="888" y="220" width="16" height="38" rx="2" fill="black"/>
</g>
</g>
</g>
</g>
</svg>
