<svg width="56" height="56" viewBox="0 0 56 56" fill="none" xmlns="http://www.w3.org/2000/svg">
<g id="Icon/Gear">
<g id="Group">
<path id="Figure" fill-rule="evenodd" clip-rule="evenodd" d="M24 0C22.8954 0 22 0.89543 22 2V8.9156C20.7539 9.30699 19.5603 9.81705 18.4325 10.4325L13.8162 5.81623C13.0352 5.03519 11.7689 5.03519 10.9878 5.81623L5.33095 11.4731C4.5499 12.2541 4.5499 13.5205 5.33095 14.3015L10.0994 19.07C9.63102 20.0071 9.23403 20.9862 8.91561 22H2C0.895431 22 0 22.8954 0 24V32C0 33.1046 0.895429 34 2 34H8.9156C9.23403 35.0138 9.63102 35.9929 10.0994 36.93L4.92893 42.1005C4.14788 42.8816 4.14788 44.1479 4.92893 44.9289L10.5858 50.5858C11.3668 51.3668 12.6332 51.3668 13.4142 50.5858L18.4325 45.5675C19.5603 46.1829 20.7539 46.693 22 47.0844V54C22 55.1046 22.8954 56 24 56H32C33.1046 56 34 55.1046 34 54V47.0844C35.0138 46.766 35.9929 46.369 36.93 45.9006L42.1005 51.0711C42.8816 51.8521 44.1479 51.8521 44.9289 51.0711L50.5858 45.4142C51.3668 44.6332 51.3668 43.3668 50.5858 42.5858L45.5675 37.5675C46.1829 36.4397 46.693 35.2461 47.0844 34H54C55.1046 34 56 33.1046 56 32V24C56 22.8954 55.1046 22 54 22H47.0844C46.693 20.7539 46.1829 19.5603 45.5675 18.4325L50.1838 13.8162C50.9648 13.0352 50.9648 11.7689 50.1838 10.9878L44.5269 5.33095C43.7459 4.5499 42.4795 4.5499 41.6985 5.33095L36.93 10.0994C35.9929 9.63102 35.0138 9.23403 34 8.9156V2C34 0.895431 33.1046 0 32 0H24ZM28 38C33.5228 38 38 33.5228 38 28C38 22.4772 33.5228 18 28 18C22.4772 18 18 22.4772 18 28C18 33.5228 22.4772 38 28 38Z" fill="black"/>
</g>
</g>
</svg>
