<svg width="56" height="56" viewBox="0 0 56 56" fill="none" xmlns="http://www.w3.org/2000/svg">
<g id="Icon/Info">
<g id="Group">
<g id="Figure">
<path d="M38 52C39.1046 52 40 51.1046 40 50V42C40 40.8954 39.1046 40 38 40H36V22C36 20.8954 35.1046 20 34 20H17C15.8954 20 15 20.8954 15 22L15 30C15 31.1046 15.8954 32 17 32H20L20 40H17C15.8954 40 15 40.8954 15 42L15 50C15 51.1046 15.8954 52 17 52H38Z" fill="black"/>
<path d="M34 16C35.1046 16 36 15.1046 36 14V6C36 4.89543 35.1046 4 34 4L22 4C20.8954 4 20 4.89543 20 6L20 14C20 15.1046 20.8954 16 22 16L34 16Z" fill="black"/>
</g>
</g>
</g>
</svg>
