<svg width="56" height="56" viewBox="0 0 56 56" fill="none" xmlns="http://www.w3.org/2000/svg">
<g id="Icon/Locker-Locked">
<g id="Group">
<path id="Figure" fill-rule="evenodd" clip-rule="evenodd" d="M10 16C8.89543 16 8 16.8954 8 18V54C8 55.1046 8.89543 56 10 56H46C47.1046 56 48 55.1046 48 54V18C48 16.8954 47.1046 16 46 16H10ZM25 31C23.8954 31 23 31.8954 23 33V39C23 40.1046 23.8954 41 25 41H31C32.1046 41 33 40.1046 33 39V33C33 31.8954 32.1046 31 31 31H25Z" fill="black"/>
<path id="Figure_2" fill-rule="evenodd" clip-rule="evenodd" d="M14 16H20V6H36V16H42V2C42 0.895431 41.1046 0 40 0H16C14.8954 0 14 0.895431 14 2V16Z" fill="black"/>
</g>
</g>
</svg>
