<svg width="56" height="56" viewBox="0 0 56 56" fill="none" xmlns="http://www.w3.org/2000/svg">
<g id="Icon/MediumArrow-Left">
<g id="Frame">
<path id="Figure" d="M42.373 50.6264C43.154 49.8454 43.154 48.579 42.373 47.798L22.5743 27.9993L42.373 8.20065C43.154 7.4196 43.154 6.15327 42.373 5.37222L39.5445 2.54379C38.7635 1.76275 37.4972 1.76275 36.7161 2.54379L15.5234 23.7366C15.5166 23.7432 15.5098 23.7498 15.5031 23.7565L12.6747 26.585C12.2925 26.9671 12.0973 27.4655 12.0891 27.9663C12.0805 28.4892 12.2757 29.0147 12.6747 29.4137L36.7161 53.4549C37.4972 54.2359 38.7635 54.2359 39.5445 53.4549L42.373 50.6264Z" fill="black"/>
</g>
</g>
</svg>
