<svg width="56" height="56" viewBox="0 0 56 56" fill="none" xmlns="http://www.w3.org/2000/svg">
<g id="Icon/MediumArrow-Right">
<g id="Frame">
<path id="Figure" d="M12.6278 5.3732C11.8467 6.15425 11.8467 7.42058 12.6278 8.20162L32.4265 28.0003L12.6278 47.799C11.8467 48.58 11.8467 49.8464 12.6278 50.6274L15.4562 53.4558C16.2373 54.2369 17.5036 54.2369 18.2846 53.4558L39.4772 32.2633C39.4841 32.2566 39.4909 32.2499 39.4977 32.2431L42.3261 29.4147C42.6892 29.0516 42.8835 28.5837 42.909 28.1084C42.9126 28.0405 42.9128 27.9724 42.9096 27.9045C42.8868 27.425 42.6923 26.9521 42.3261 26.5859L39.4977 23.7575C39.4909 23.7507 39.4841 23.744 39.4772 23.7373L18.2846 2.54477C17.5036 1.76372 16.2373 1.76372 15.4562 2.54477L12.6278 5.3732Z" fill="black"/>
</g>
</g>
</svg>
