<svg width="56" height="56" viewBox="0 0 56 56" fill="none" xmlns="http://www.w3.org/2000/svg">
<g id="Icon/Music-On">
<g id="Group">
<path id="Figure" d="M16 0C14.8954 0 14 0.89543 14 2V34.4141C13.0463 34.1443 12.04 34 11 34C4.92487 34 0 38.9249 0 45C0 51.0751 4.92487 56 11 56C17.0751 56 22 51.0751 22 45C22 44.6629 21.9848 44.3294 21.9552 44H22V14H41V23.4141C40.0463 23.1443 39.04 23 38 23C31.9249 23 27 27.9249 27 34C27 40.0751 31.9249 45 38 45C44.0751 45 49 40.0751 49 34C49 33.6629 48.9848 33.3294 48.9552 33H49V2C49 0.895431 48.1046 0 47 0H16Z" fill="black"/>
</g>
</g>
</svg>
