<svg width="56" height="56" viewBox="0 0 56 56" fill="none" xmlns="http://www.w3.org/2000/svg">
<g id="Icon/Question">
<g id="Group">
<rect id="Rectangle" x="21" y="42" width="13" height="14" rx="2" fill="black"/>
<path id="Figure" d="M29 37.9931C32.4841 37.8964 35.8745 36.7905 38.778 34.7979C41.8204 32.7102 44.1916 29.7428 45.5918 26.271C46.992 22.7992 47.3584 18.9789 46.6445 15.2933C45.9307 11.6077 44.1687 8.22218 41.5815 5.56498C38.9942 2.90778 35.6978 1.09821 32.1092 0.365089C28.5205 -0.368031 24.8008 0.008232 21.4204 1.4463C18.0399 2.88436 15.1506 5.31964 13.1178 8.44417C11.4469 11.0124 10.4164 13.9515 10.1024 17.0034C9.98937 18.1022 10.8954 19 12 19L18.7428 19C19.8474 19 20.7185 18.0915 20.9862 17.0199C21.2027 16.1533 21.561 15.3257 22.0501 14.5739C22.9025 13.2637 24.114 12.2426 25.5315 11.6396C26.9489 11.0366 28.5086 10.8788 30.0134 11.1862C31.5181 11.4936 32.9003 12.2524 33.9852 13.3666C35.07 14.4808 35.8088 15.9003 36.1081 17.4458C36.4075 18.9912 36.2538 20.593 35.6667 22.0488C35.0796 23.5045 34.0853 24.7488 32.8097 25.6242C31.534 26.4996 30.0342 27 28.5 27H23C21.8954 27 21 27.8954 21 29V36C21 37.1046 21.8954 38 23 38H29V37.9931Z" fill="black"/>
</g>
</g>
</svg>
