<svg width="56" height="56" viewBox="0 0 56 56" fill="none" xmlns="http://www.w3.org/2000/svg">
<g id="Icon/Repeat-Right">
<g id="Group">
<path id="Figure" fill-rule="evenodd" clip-rule="evenodd" d="M27 14C23.6377 14 20.351 14.997 17.5553 16.865C14.7597 18.733 12.5807 21.388 11.2941 24.4944C10.0074 27.6007 9.67071 31.0189 10.3267 34.3165C10.9826 37.6142 12.6017 40.6433 14.9792 43.0208C17.3567 45.3983 20.3858 47.0174 23.6835 47.6733C26.9811 48.3293 30.3993 47.9926 33.5056 46.7059C36.612 45.4193 39.267 43.2403 41.135 40.4447C42.6312 38.2055 43.5686 35.6512 43.8825 32.9954C44.0121 31.8985 44.8954 31 46 31H50C51.1046 31 52.0083 31.8969 51.9201 32.9979C51.5801 37.2383 50.1624 41.3339 47.7867 44.8892C45.0397 49.0005 41.1352 52.2048 36.5671 54.097C31.9989 55.9892 26.9723 56.4843 22.1227 55.5196C17.2732 54.555 12.8187 52.174 9.32234 48.6777C5.82603 45.1813 3.44501 40.7268 2.48038 35.8773C1.51575 31.0277 2.01083 26.0011 3.90302 21.4329C5.79521 16.8648 8.99953 12.9603 13.1108 10.2133C17.222 7.46622 22.0555 6 27 6V14Z" fill="black"/>
<path id="Polygon" d="M38.7215 8.37253C39.8382 9.17018 39.8382 10.8298 38.7215 11.6275L30.1625 17.7411C28.8387 18.6866 27 17.7404 27 16.1136L27 3.88638C27 2.25963 28.8387 1.31338 30.1625 2.25891L38.7215 8.37253Z" fill="black"/>
</g>
</g>
</svg>
