<svg width="56" height="56" viewBox="0 0 56 56" fill="none" xmlns="http://www.w3.org/2000/svg">
<g id="Icon/Star">
<g id="Group">
<path id="Star" d="M24.1735 3.7979C25.3779 0.0673648 30.6221 0.0673671 31.8265 3.7979L35.6782 15.728C36.2168 17.3963 37.7616 18.5259 39.5046 18.5259H51.9689C55.8665 18.5259 57.487 23.5453 54.3338 25.8509L44.25 33.2241C42.8398 34.2551 42.2498 36.0828 42.7884 37.7511L46.6401 49.6812C47.8445 53.4118 43.6019 56.5139 40.4487 54.2083L30.3649 46.8351C28.9547 45.804 27.0453 45.804 25.6351 46.8351L15.5513 54.2083C12.3981 56.5139 8.15551 53.4118 9.35993 49.6812L13.2116 37.7511C13.7502 36.0828 13.1602 34.2551 11.75 33.224L1.66622 25.8509C-1.48698 23.5453 0.133553 18.5259 4.03113 18.5259H16.4954C18.2384 18.5259 19.7832 17.3963 20.3218 15.728L24.1735 3.7979Z" fill="black"/>
</g>
</g>
</svg>
