<svg width="56" height="56" viewBox="0 0 56 56" fill="none" xmlns="http://www.w3.org/2000/svg">
<g id="Icon/TalkBubble">
<path id="Figure" fill-rule="evenodd" clip-rule="evenodd" d="M0 2C0 0.895431 0.895431 0 2 0H54C55.1046 0 56 0.895431 56 2V38C56 39.1046 55.1046 40 54 40H25L12.4142 52.5858C11.1543 53.8457 9 52.9534 9 51.1716L9 40H2C0.89543 40 0 39.1046 0 38V2ZM20 20C20 22.2091 18.2091 24 16 24C13.7909 24 12 22.2091 12 20C12 17.7909 13.7909 16 16 16C18.2091 16 20 17.7909 20 20ZM28 24C30.2091 24 32 22.2091 32 20C32 17.7909 30.2091 16 28 16C25.7909 16 24 17.7909 24 20C24 22.2091 25.7909 24 28 24ZM44 20C44 22.2091 42.2091 24 40 24C37.7909 24 36 22.2091 36 20C36 17.7909 37.7909 16 40 16C42.2091 16 44 17.7909 44 20Z" fill="black"/>
</g>
</svg>
