<svg width="56" height="56" viewBox="0 0 56 56" fill="none" xmlns="http://www.w3.org/2000/svg">
<g id="Icon/Thumb-Down">
<g id="Group">
<rect id="Rectangle" width="16" height="33" rx="2" transform="matrix(1 0 0 -1 0 34)" fill="black"/>
<path id="Figure" d="M38.7285 49.8891C38.5685 57.2821 28.5805 56.0996 28.7285 49.8891L28.731 49.7846C28.8801 43.5474 29.1588 31.8891 16.7285 31.8891H18.3414C17.5603 31.6169 16.9998 30.8739 16.9998 30V5C16.9998 3.89543 17.8952 3 18.9998 3H53.9998C55.1043 3 55.9998 3.89543 55.9998 5V30C55.9998 31.1046 55.1043 32 53.9998 32H38.7301C38.7465 33.1466 38.879 42.9383 38.7285 49.8891Z" fill="black"/>
</g>
</g>
</svg>
