<svg width="56" height="56" viewBox="0 0 56 56" fill="none" xmlns="http://www.w3.org/2000/svg">
<g id="Icon/TwoPlayer">
<g id="Group">
<g id="Group_2">
<circle id="Ellipse" cx="15.8387" cy="30.7879" r="6.78787" fill="black"/>
<circle id="Ellipse_2" cx="40.1619" cy="30.7879" r="6.78787" fill="black"/>
<path id="Ellipse_3" d="M54 55.6772C55.1045 55.6772 56.013 54.7782 55.8739 53.6825C55.4341 50.2175 53.8572 46.974 51.361 44.4778C48.3908 41.5075 44.3622 39.8389 40.1616 39.8389C35.961 39.8389 31.9325 41.5075 28.9622 44.4778C26.466 46.974 24.8891 50.2175 24.4493 53.6825C24.3102 54.7782 25.2187 55.6772 26.3232 55.6772L54 55.6772Z" fill="black"/>
<path id="Figure" d="M22.6263 55.6772C22.6263 51.5307 24.2523 47.5518 27.1512 44.5931C27.1134 44.5545 27.0754 44.5161 27.0372 44.4778C24.0669 41.5075 20.0383 39.8389 15.8377 39.8389C11.6372 39.8389 7.6086 41.5075 4.63833 44.4778C2.14218 46.974 0.565263 50.2175 0.125439 53.6825C-0.0136534 54.7782 0.894812 55.6772 1.99938 55.6772H22.6263Z" fill="black"/>
</g>
</g>
</g>
</svg>
