<svg width="56" height="56" viewBox="0 0 56 56" fill="none" xmlns="http://www.w3.org/2000/svg">
<g id="Icon/Cross">
<path id="Figure" d="M51.3339 14.5644C52.115 13.7833 52.115 12.517 51.3339 11.736L44.2629 4.66489C43.4818 3.88384 42.2155 3.88384 41.4344 4.66489L27.9995 18.0998L14.5647 4.66497C13.7837 3.88392 12.5173 3.88392 11.7363 4.66497L4.66521 11.736C3.88416 12.5171 3.88416 13.7834 4.66521 14.5645L18.1 27.9993L4.66489 41.4344C3.88384 42.2155 3.88384 43.4818 4.66489 44.2629L11.736 51.3339C12.517 52.115 13.7833 52.115 14.5644 51.3339L27.9995 37.8988L41.4348 51.334C42.2158 52.1151 43.4821 52.1151 44.2632 51.334L51.3343 44.2629C52.1153 43.4819 52.1153 42.2156 51.3343 41.4345L37.899 27.9993L51.3339 14.5644Z" fill="white"/>
</g>
</svg>
