<svg width="56" height="56" viewBox="0 0 56 56" fill="none" xmlns="http://www.w3.org/2000/svg">
<g id="Icon/Exit">
<g id="Group">
<path id="Figure" fill-rule="evenodd" clip-rule="evenodd" d="M12 8V47H44V8H12ZM10 4C8.89543 4 8 4.89543 8 6V49C8 50.1046 8.89543 51 10 51H46C47.1046 51 48 50.1046 48 49V6C48 4.89543 47.1046 4 46 4H10Z" fill="white"/>
<path id="Figure_2" fill-rule="evenodd" clip-rule="evenodd" d="M31.6959 54.9765C32.9074 55.1617 34 54.2301 34 53.0118L34 1.9882C34 0.769922 32.9074 -0.161706 31.6959 0.023541L9.69589 3.38746C8.72023 3.53664 8 4.37101 8 5.35211L8 49.6479C8 50.629 8.72022 51.4634 9.69588 51.6125L31.6959 54.9765ZM28 29.4878C29.1046 29.4878 30 28.5978 30 27.5C30 26.4022 29.1046 25.5122 28 25.5122C26.8954 25.5122 26 26.4022 26 27.5C26 28.5978 26.8954 29.4878 28 29.4878Z" fill="white"/>
</g>
</g>
</svg>
