<svg width="56" height="56" viewBox="0 0 56 56" fill="none" xmlns="http://www.w3.org/2000/svg">
<g id="Icon/Home">
<g id="Group">
<path id="Figure" d="M47.5088 32.4963C48.291 33.2751 49.5593 33.2751 50.3415 32.4963L54.4133 28.4427C55.1956 27.664 55.1956 26.4015 54.4133 25.6228L29.2618 0.584027C28.5104 -0.163913 27.3108 -0.19346 26.524 0.495385C26.4716 0.537933 26.4209 0.583512 26.3721 0.632131L1.58666 25.3064C0.804447 26.0851 0.804447 27.3476 1.58666 28.1263L5.65853 32.1799C6.44074 32.9586 7.70896 32.9586 8.49117 32.1799L10.1849 30.4937V53.006C10.1849 54.1073 11.0817 55 12.1879 55H43.2341C44.3403 55 45.237 54.1073 45.237 53.006V30.2348L47.5088 32.4963Z" fill="white"/>
</g>
</g>
</svg>
