<svg width="56" height="57" viewBox="0 0 56 57" fill="none" xmlns="http://www.w3.org/2000/svg">
<g id="Icon/Multiplayer">
<g id="Group">
<circle id="Ellipse" cx="13.1764" cy="35.4107" r="5.64706" fill="white"/>
<path id="Ellipse_2" d="M24.3529 56.1169C25.4575 56.1169 26.3685 55.2164 26.2015 54.1245C25.7798 51.3674 24.4901 48.7962 22.4936 46.7997C20.0226 44.3287 16.6711 42.9404 13.1765 42.9404C9.68185 42.9404 6.33037 44.3287 3.8593 46.7997C1.86281 48.7962 0.573174 51.3674 0.151452 54.1245C-0.0155612 55.2164 0.895431 56.1169 2 56.1169L24.3529 56.1169Z" fill="white"/>
<circle id="Ellipse_3" cx="42.8238" cy="35.4107" r="5.64706" fill="white"/>
<path id="Ellipse_4" d="M53.9994 56.1169C55.104 56.1169 56.015 55.2164 55.848 54.1245C55.4263 51.3674 54.1366 48.7962 52.1401 46.7997C49.6691 44.3287 46.3176 42.9404 42.823 42.9404C39.3283 42.9404 35.9769 44.3287 33.5058 46.7997C31.5093 48.7962 30.2197 51.3674 29.7979 54.1245C29.6309 55.2164 30.5419 56.1169 31.6465 56.1169L53.9994 56.1169Z" fill="white"/>
<circle id="Ellipse_5" cx="28.0006" cy="29.6471" r="5.64706" fill="white"/>
<path id="Figure" d="M38.4839 42.3706C38.1274 41.9023 37.738 41.4559 37.3171 41.0351C34.8461 38.564 31.4946 37.1758 27.9999 37.1758C24.5053 37.1758 21.1538 38.564 18.6828 41.0351C18.2622 41.4557 17.873 41.9018 17.5166 42.3698C19.7588 42.9574 21.8267 44.1316 23.4938 45.7988C24.8015 47.1064 25.8059 48.6607 26.4618 50.3523H29.5383C30.1943 48.6611 31.1986 47.1072 32.506 45.7997C34.1733 44.1324 36.2414 42.9581 38.4839 42.3706Z" fill="white"/>
</g>
</g>
</svg>
