<svg width="56" height="56" viewBox="0 0 56 56" fill="none" xmlns="http://www.w3.org/2000/svg">
<g id="Icon/Music-Off">
<g id="Group">
<g id="Figure">
<path d="M18.0654 0H53.0654V33H53.0206C53.0503 33.3294 53.0654 33.6629 53.0654 34C53.0654 37.6353 51.302 40.8587 48.5839 42.8615L33.204 27.4815C35.2067 24.7634 38.4301 23 42.0654 23C43.1055 23 44.1118 23.1443 45.0654 23.4141V14H26.0654V20.343L18.0654 12.343V0Z" fill="white"/>
<path d="M18.0654 23.6567V34.4141C17.1118 34.1443 16.1055 34 15.0654 34C8.9903 34 4.06543 38.9249 4.06543 45C4.06543 51.0751 8.9903 56 15.0654 56C21.1406 56 26.0654 51.0751 26.0654 45C26.0654 44.6629 26.0503 44.3294 26.0206 44H26.0654V31.6567L18.0654 23.6567Z" fill="white"/>
<path d="M31.5081 37.0994C32.5583 40.6824 35.383 43.5071 38.966 44.5573L31.5081 37.0994Z" fill="white"/>
</g>
<rect id="Rectangle" x="4.53516" y="1.55078" width="70" height="4.00423" rx="2" transform="rotate(45 4.53516 1.55078)" fill="white"/>
</g>
</g>
</svg>
