<svg width="56" height="56" viewBox="0 0 56 56" fill="none" xmlns="http://www.w3.org/2000/svg">
<g id="Icon/ShareLink">
<g id="Group">
<path id="Figure" d="M51 11C51 15.9706 46.9706 20 42 20C39.0341 20 36.4032 18.5653 34.7636 16.3521L22.4492 22.8927C22.8055 23.8612 23 24.9079 23 26C23 27.3083 22.7209 28.5514 22.2189 29.6729L35.6268 38.6453C37.2562 37.0112 39.51 36 42 36C46.9706 36 51 40.0294 51 45C51 49.9706 46.9706 54 42 54C37.0294 54 33 49.9706 33 45C33 43.9612 33.176 42.9634 33.4998 42.035L19.8098 32.8738C18.2421 34.2002 16.2144 35 14 35C9.02944 35 5 30.9706 5 26C5 21.0294 9.02944 17 14 17C16.4303 17 18.6357 17.9633 20.255 19.5289L33.1559 12.6768C33.0535 12.1335 33 11.573 33 11C33 6.02944 37.0294 2 42 2C46.9706 2 51 6.02944 51 11Z" fill="white"/>
</g>
</g>
</svg>
