<svg width="56" height="56" viewBox="0 0 56 56" fill="none" xmlns="http://www.w3.org/2000/svg">
<g id="Icon/Sound-One">
<g id="Group">
<path id="Figure" d="M24.5858 52.4143C25.8457 53.6655 28 52.7794 28 51.01V4.99004C28 3.22065 25.8457 2.33454 24.5858 3.58568L12 16.0837H2C0.895431 16.0837 0 16.9729 0 18.0697V37.9303C0 39.0271 0.89543 39.9163 2 39.9163H12L24.5858 52.4143Z" fill="white"/>
<path id="Figure_2" fill-rule="evenodd" clip-rule="evenodd" d="M33.0456 25.3431C32.8747 24.9569 32.6732 24.5842 32.4432 24.2282C31.836 23.2886 31.8086 22.0372 32.6377 21.2606L33.3716 20.5732C34.2007 19.7965 35.5603 19.7892 36.2556 20.6736C36.9289 21.5301 37.4908 22.4618 37.9274 23.449C38.6355 25.0504 39 26.7667 39 28.5C39 30.2333 38.6355 31.9496 37.9274 33.551C37.4908 34.5382 36.9289 35.4699 36.2556 36.3264C35.5603 37.2108 34.2007 37.2035 33.3716 36.4268L32.6377 35.7394C31.8086 34.9628 31.836 33.7114 32.4432 32.7718C32.6732 32.4158 32.8747 32.0431 33.0456 31.6569C33.4881 30.656 33.7159 29.5833 33.7159 28.5C33.7159 27.4167 33.4881 26.344 33.0456 25.3431Z" fill="white"/>
</g>
</g>
</svg>
