<svg width="56" height="56" viewBox="0 0 56 56" fill="none" xmlns="http://www.w3.org/2000/svg">
<g id="Icon/Sound-None">
<g id="Group">
<path id="Figure" d="M24.5858 52.5856C25.8457 53.8455 28 52.9532 28 51.1714V4.82823C28 3.04642 25.8457 2.15408 24.5858 3.41401L12 15.9998H2C0.895431 15.9998 0 16.8952 0 17.9998V37.9998C0 39.1044 0.89543 39.9998 2 39.9998H12L24.5858 52.5856Z" fill="white"/>
<path id="Figure_2" d="M40.8782 21.6356C40.0972 20.8545 38.8309 20.8545 38.0498 21.6356L36.6356 23.0498C35.8545 23.8309 35.8545 25.0972 36.6356 25.8782L38.7573 27.9999L36.6358 30.1214C35.8548 30.9024 35.8548 32.1688 36.6358 32.9498L38.0501 34.364C38.8311 35.1451 40.0974 35.1451 40.8785 34.364L42.9999 32.2426L45.1209 34.3635C45.9019 35.1446 47.1683 35.1446 47.9493 34.3635L49.3635 32.9493C50.1446 32.1683 50.1446 30.9019 49.3635 30.1209L47.2426 27.9999L49.3638 25.8788C50.1448 25.0977 50.1448 23.8314 49.3638 23.0503L47.9496 21.6361C47.1685 20.8551 45.9022 20.8551 45.1211 21.6361L42.9999 23.7573L40.8782 21.6356Z" fill="white"/>
</g>
</g>
</svg>
